<svg version="1.1" baseProfile="full" height="165.0" xmlns="http://www.w3.org/2000/svg" width="165.0"><g transform="scale(50 50) translate(1.65 1.65)"><circle cx="-1" r="0.5" cy="0" style="stroke-width:0.11;fill:none;stroke:black"></circle><circle cx="0" r="0.5" cy="1" style="stroke-width:0.11;fill:none;stroke:black"></circle><circle cx="1" r="0.5" cy="0" style="stroke-width:0.11;fill:none;stroke:black"></circle><circle cx="0" r="0.5" cy="-1" style="stroke-width:0.11;fill:none;stroke:black"></circle><g><circle cx="1.0" r="0.16" cy="0.5" style="fill:#389826;stroke:none"></circle><circle cx="0.5" r="0.16" cy="1.0" style="fill:#389826;stroke:none"></circle><path d="M 1.0,0.5 C 1.0,0.75 0.75,1.0 0.5,1.0" style="stroke-width:0.11;stroke:#389826;fill:none"></path></g><g><circle cx="1.0" r="0.16" cy="-0.5" style="fill:#cb3c33;stroke:none"></circle><circle cx="0.5" r="0.16" cy="-1.0" style="fill:#cb3c33;stroke:none"></circle><path d="M 1.0,-0.5 C 1.0,-0.75 0.75,-1.0 0.5,-1.0" style="stroke-width:0.11;stroke:#cb3c33;fill:none"></path></g><g><circle cx="-1.0" r="0.16" cy="-0.5" style="fill:#9558b2;stroke:none"></circle><circle cx="-0.5" r="0.16" cy="-1.0" style="fill:#9558b2;stroke:none"></circle><path d="M -1.0,-0.5 C -1.0,-0.75 -0.75,-1.0 -0.5,-1.0" style="stroke-width:0.11;stroke:#9558b2;fill:none"></path></g><g><circle cx="-1.0" r="0.16" cy="0.5" style="fill:#4063d8;stroke:none"></circle><circle cx="-0.5" r="0.16" cy="1.0" style="fill:#4063d8;stroke:none"></circle><path d="M -1.0,0.5 C -1.0,0.75 -0.75,1.0 -0.5,1.0" style="stroke-width:0.11;stroke:#4063d8;fill:none"></path></g></g></svg>